# xmcd
#
# Track frame offsets:
#	188
#	22088
#	39638
#	53813
#	66188
#	78938
#	95963
#	113213
#	125813
#	137663
#	149363
#	162113
#	174263
#	188138
#	200963
#
# Disc length: 2983 seconds
#
# Revision: 2
# Processed by: cddbd v1.5PL3 Copyright (c) Steve Scherf et al.
# Submitted via: EZCDDA 4.3.2
#
DISCID=e00ba50f
DTITLE=Baladas SOUL - CD2
DYEAR=1900
DGENRE=
TTITLE0=Me And Mrs Jones (Harold Melvin and The Blue Notes Feat. Billy Paul)
TTITLE1=Call Me (Aretha Franklin)
TTITLE2=Summertime (The Drifters)
TTITLE3=You Send Me (Sam Cooke)
TTITLE4=Don't Play That Song (Ben E King)
TTITLE5=Blowin' In The Wind (Etta James)
TTITLE6=A Whiter Shade Of Pale - Con Su Blanca Palidez (RB Graves)
TTITLE7=Twilight Time - El Crepusculo (The Platters)
TTITLE8=If You Need Me (Wilson Pickett)
TTITLE9=What A Difference A Day Made (Dinah Washington)
TTITLE10=Think Twice (Brook Benton)
TTITLE11=Moon River (Jerry Butler)
TTITLE12=Blue Velvet (The Moonglows)
TTITLE13=Chapel Of Love (Dixie Cups)
TTITLE14=Oh Happy Day (The Edwin Hawkings Singer)
EXTD=
EXTT0=
EXTT1=
EXTT2=
EXTT3=
EXTT4=
EXTT5=
EXTT6=
EXTT7=
EXTT8=
EXTT9=
EXTT10=
EXTT11=
EXTT12=
EXTT13=
EXTT14=
PLAYORDER=
